<?xml version="1.0" encoding="utf-8"?>
<!-- Generator: Adobe Illustrator 25.2.1, SVG Export Plug-In . SVG Version: 6.00 Build 0)  -->
<svg version="1.1" id="Camada_2" xmlns="http://www.w3.org/2000/svg" xmlns:xlink="http://www.w3.org/1999/xlink" x="0px" y="0px"
	 viewBox="0 0 244 270" style="enable-background:new 0 0 244 270;" xml:space="preserve">
<style type="text/css">
	.st0{fill:#FFDC06;}
	.st1{fill:#F7D501;}
	.st2{fill:#EDEDED;}
</style>
<g>
	<g>
		<path class="st0" d="M92.2,177.6l-14.8,3.3c-5.6,1-6.4,3-2.3,5.9c7.2,5.6,10.8,11.8,10.9,18.6c0,6.8-3.3,11.6-10,14.4l-41,9
			l-0.4-16.2l25.9-5.7c6.1-1.2,6.9-3.3,2.2-6.5c-7.8-6.4-11.2-13.1-10.2-20.1c1-7,4.4-11.2,10.4-12.5l29-6.4L92.2,177.6z"/>
	</g>
	<g>
		<path class="st0" d="M85.2,217.6l14.1-57.9l23.3-5.1l17.1,51.1l-17.8,3.9l-3.2-9.2l-14,3.1l-2.7,10.5L85.2,217.6z M111.3,169.2
			l-6.2,23.1l13-2.9L111.3,169.2z"/>
	</g>
	<g>
		<path class="st0" d="M175.1,159.3l-11.5,2.5c-5.6,1-6.4,3-2.3,5.9c7.2,5.6,10.8,11.8,10.9,18.6c0,6.8-3.3,11.6-10,14.4l-25,5.5
			l-0.4-16.2l9.9-2.2c6.1-1.2,6.9-3.3,2.2-6.5c-7.8-6.4-11.2-13.1-10.2-20.1c1-7,4.4-11.2,10.4-12.5l25.7-5.7L175.1,159.3z"/>
	</g>
	<g>
		<path class="st0" d="M212.1,151.2l-11.5,2.5c-5.6,1-6.4,3-2.3,5.9c7.2,5.6,10.8,11.8,10.9,18.6c0,6.8-3.3,11.6-10,14.4l-25,5.5
			l-0.4-16.2l9.9-2.2c6.1-1.2,6.9-3.3,2.2-6.5c-7.8-6.4-11.2-13.1-10.2-20.1c1-7,4.4-11.2,10.4-12.5l25.7-5.7L212.1,151.2z"/>
	</g>
</g>
<g>
	<g>
		<path class="st0" d="M61.1,82.3l0.4,16.2l-8.1,1.8l1,38.6c0,4.2-0.3,7.2-1,9.1s-1.7,3.7-3.4,5.6c-1.6,1.9-3.7,3.5-6.2,4.8
			c-2.5,1.3-4.8,2.4-6.8,3.1c-2,0.7-4.7,1.4-8.1,2.2l-0.4-16.2c1.9-0.4,3.4-0.8,4.6-1.2c1.1-0.5,2.1-1,2.9-1.6
			c0.8-0.6,1.4-1.4,1.9-2.4c0.5-0.9,0.8-2.6,1-4.9l-1.2-49.8L61.1,82.3z"/>
	</g>
	<g>
		<path class="st0" d="M110.6,99.1c0.1,6-0.8,11.3-2.8,16c-2,4.7-5.1,8.5-9.1,11.5c-4,3-8.8,5.1-14.5,6.4c-5.6,1.2-10.5,1.2-14.6,0
			c-4.1-1.2-7.2-3.7-9.4-7.4c-2.2-3.7-3.4-8.6-3.5-14.6c-0.1-4.6,0.4-8.7,1.5-12.4c1.1-3.7,2.8-7,5-9.9c2.2-2.9,5-5.3,8.3-7.2
			c3.3-2,7.1-3.4,11.3-4.3c5.6-1.2,10.5-1.2,14.6,0c4.1,1.3,7.3,3.7,9.6,7.5C109.3,88.3,110.5,93.2,110.6,99.1z M73.3,107.5
			c0.1,3.5,0.8,6.4,2.3,8.7c1.4,2.3,4.1,3,8.1,2.1c3.1-0.7,5.4-1.9,6.9-3.6c1.5-1.7,2.4-3.5,2.7-5.3c0.3-1.8,0.5-4,0.6-6.5
			c-0.2-3.5-1-6.4-2.4-8.7c-1.4-2.3-4.2-3-8.5-2.1C76.4,93.7,73.1,98.8,73.3,107.5z"/>
	</g>
	<g>
		<path class="st0" d="M109,126.6l14.1-57.9l23.3-5.1l17.1,51.1l-17.8,3.9l-3.2-9.2l-14,3.1l-2.7,10.5L109,126.6z M135.1,78.2
			l-6.2,23.1l13-2.9L135.1,78.2z"/>
	</g>
	<g>
		<path class="st0" d="M214.5,76.3c0.1,6-0.8,11.3-2.8,16c-2,4.7-5.1,8.5-9.1,11.5c-4,3-8.8,5.1-14.5,6.4s-10.5,1.2-14.6,0
			c-4.1-1.2-7.2-3.7-9.4-7.4c-2.2-3.7-3.4-8.6-3.5-14.6c-0.1-4.6,0.4-8.7,1.5-12.4c1.1-3.7,2.8-7,5-9.9c2.2-2.9,5-5.3,8.3-7.2
			c3.3-2,7.1-3.4,11.3-4.3c5.6-1.2,10.5-1.2,14.6,0s7.3,3.7,9.6,7.5C213.2,65.4,214.4,70.3,214.5,76.3z M177.2,84.6
			c0.1,3.5,0.8,6.4,2.3,8.7c1.4,2.3,4.1,3,8.1,2.1c3.1-0.7,5.4-1.9,6.9-3.6c1.5-1.7,2.4-3.5,2.7-5.3c0.3-1.8,0.5-4,0.6-6.5
			c-0.2-3.5-1-6.4-2.4-8.7c-1.4-2.3-4.2-3-8.5-2.1C180.3,70.8,177,75.9,177.2,84.6z"/>
	</g>
	<g>
		<path class="st1" d="M126.9,57.9l-4.6,0l0.4-2.7c0.5-3.4,3.2-5.6,5.8-6.2c1.2-0.2,2.3-0.2,3.3-0.1c0.6,0,1.1,0.1,1.6,0.1
			c3-0.1,6.2-2.9,7.3-6.4l0.9-2.7l4.3,1.2l-0.9,2.7c-1.9,5.8-7.1,10.4-12.1,10.6c-0.7,0-1.4,0-2-0.1c-0.8-0.1-1.6-0.1-2.2,0
			c-0.7,0.1-1.2,0.6-1.3,0.8L126.9,57.9z"/>
		<path class="st1" d="M126.9,58.9C126.9,58.9,126.9,58.9,126.9,58.9l-4.6,0c-0.3,0-0.6-0.1-0.7-0.3c-0.2-0.2-0.3-0.5-0.2-0.8
			l0.4-2.7c0.6-4,3.8-6.4,6.6-7c1.3-0.3,2.6-0.2,3.6-0.1c0.5,0,1,0.1,1.5,0c2.5-0.1,5.4-2.7,6.4-5.7l0.9-2.7
			c0.2-0.5,0.7-0.8,1.2-0.7l4.3,1.2c0.3,0.1,0.5,0.3,0.6,0.5c0.1,0.2,0.2,0.5,0.1,0.8l-0.9,2.7c-2,6.2-7.6,11-13,11.3
			c-0.8,0-1.5,0-2.2-0.1c-0.7-0.1-1.4-0.1-2,0c-0.2,0-0.4,0.2-0.5,0.2l-0.3,2.5C127.8,58.5,127.4,58.9,126.9,58.9z M123.4,56.9
			l2.6,0l0.3-1.9c0-0.1,0-0.1,0-0.2c0.2-0.6,1.1-1.3,2-1.5c0.8-0.2,1.7-0.1,2.5,0c0.6,0,1.3,0.1,1.9,0.1c4.6-0.2,9.4-4.5,11.2-9.9
			l0.5-1.7l-2.4-0.7l-0.6,1.7c-1.3,3.9-4.8,6.9-8.2,7.1c-0.6,0-1.1,0-1.7-0.1c-1-0.1-2-0.1-3,0.1c-2.2,0.4-4.6,2.4-5,5.3L123.4,56.9
			z"/>
	</g>
</g>
<g>
	<path class="st0" d="M18.6,270c-3.1,0-5.9-1-8.3-2.9c-3.6-2.8-5.7-7.4-5.8-12.6L-0.5,66.1c-0.3-9.9,6.8-19.5,15.7-21.4L222.3,0.4
		c4.2-0.9,8.3,0,11.5,2.5c3.6,2.8,5.7,7.4,5.8,12.6l4.9,188.4c0.3,9.9-6.8,19.5-15.7,21.4l-9.7,2.1c-1.1,0.2-2.1-0.5-2.3-1.5
		s0.5-2.1,1.5-2.3l9.7-2.1c7.1-1.5,12.8-9.4,12.5-17.5l-4.9-188.4c-0.1-4-1.7-7.5-4.3-9.6c-2.3-1.8-5.2-2.4-8.2-1.8L16,48.5
		C8.9,50,3.3,57.9,3.5,66l4.9,188.4c0.1,4,1.7,7.5,4.3,9.6c2.3,1.8,5.2,2.4,8.2,1.8l63.9-12.9c1.1-0.2,2.1,0.5,2.3,1.5
		c0.2,1.1-0.5,2.1-1.5,2.3l-63.9,12.9C20.6,269.9,19.6,270,18.6,270z"/>
</g>
<g>
	<path class="st2" d="M97.7,251.8l-0.8,4.7l-3,0.7l-2.3-7l-1.9,0.4l-0.1-3.2l4.2-0.9l1.4,4.3l1-4.8l2.7-0.6l1.4,4.3l0.7-4.8l2.9-0.6
		l-2,11.1l-3,0.7L97.7,251.8z"/>
	<path class="st2" d="M103.2,255.1l-0.2-7.4l-1.9,0.4l-0.1-3.2l9.7-2.1l0.1,3.2L106,247l0,1.2l3.1-0.7l0,1.9l-3.1,0.7l0,1.2l5.6-1.2
		l0.1,3.2L103.2,255.1z"/>
	<path class="st2" d="M111.8,253.2l-0.2-7.4l-1.9,0.4l-0.1-3.2l8.1-1.8c1-0.2,1.8-0.2,2.3,0.1c0.5,0.3,0.9,0.9,1,1.8
		c0.1,0.7-0.1,1.3-0.3,1.7c-0.3,0.5-0.8,0.9-1.4,1.3l0,0c0.3,0,0.6,0,0.9,0.1c0.3,0.1,0.5,0.2,0.7,0.4c0.2,0.2,0.4,0.4,0.5,0.6
		c0.1,0.3,0.2,0.5,0.2,0.8c0,0.8-0.1,1.5-0.5,2c-0.4,0.5-0.8,0.9-1.4,1.2c-0.6,0.3-1.3,0.5-2.1,0.6L111.8,253.2z M114.8,244.5l0,1.6
		l2.2-0.5c0.1,0,0.2-0.1,0.4-0.3c0.1-0.2,0.2-0.4,0.2-0.6c0-0.3-0.1-0.5-0.3-0.6s-0.3-0.1-0.4-0.1L114.8,244.5z M114.9,248.4l0,2
		l2-0.4c0.4-0.1,0.7-0.2,0.9-0.5c0.3-0.2,0.4-0.5,0.4-0.8c0-0.3-0.1-0.5-0.3-0.7c-0.2-0.1-0.6-0.1-1,0L114.9,248.4z"/>
	<path class="st2" d="M128.1,249.6l-0.2-7.4l-1.9,0.4l-0.1-3.2l7.3-1.6c0.7-0.2,1.4-0.2,1.9-0.1c0.6,0.1,1,0.3,1.4,0.6
		c0.4,0.3,0.7,0.7,1,1.3c0.3,0.6,0.4,1.4,0.4,2.5c0,1-0.1,1.8-0.4,2.6c-0.2,0.7-0.5,1.3-0.9,1.8c-0.4,0.5-0.8,0.9-1.4,1.2
		c-0.5,0.3-1.2,0.6-2.1,0.8L128.1,249.6z M131,241l0.1,5.3l1.7-0.4c0.4-0.1,0.7-0.3,0.9-0.5c0.2-0.2,0.4-0.5,0.6-0.9
		c0.1-0.3,0.2-0.9,0.2-1.7c0-0.7-0.1-1.2-0.3-1.5c-0.2-0.3-0.4-0.5-0.6-0.7s-0.6-0.2-1-0.1L131,241z"/>
	<path class="st2" d="M138.7,247.3l-0.3-10.6l7.8-1.7l0.1,3.2l-4.9,1.1l0,1.2l3.1-0.7l0,1.9l-3.1,0.7l0,1.2l5.6-1.2l0.1,3.2
		L138.7,247.3z"/>
	<path class="st2" d="M149.6,234.2l2.3,7.7l1.9-8.6l3.7-0.8l-3,11.3l-4.9,1.1l-3.5-9.9L149.6,234.2z"/>
	<path class="st2" d="M157.6,243.1l-0.3-10.6l7.8-1.7l0.1,3.2l-4.9,1.1l0,1.2l3.1-0.7l0,1.9l-3.1,0.7l0,1.2l5.6-1.2l0.1,3.2
		L157.6,243.1z"/>
	<path class="st2" d="M166.2,241.2l-0.3-10.6l3-0.7l0.2,7.4l5-1.1l0.1,3.2L166.2,241.2z"/>
	<path class="st2" d="M184.6,231.9c0,1.2-0.2,2.2-0.6,3.1c-0.4,0.9-1,1.7-1.8,2.2c-0.8,0.6-1.7,1-2.8,1.2c-1.1,0.2-2,0.2-2.8,0
		c-0.8-0.2-1.4-0.7-1.8-1.4c-0.4-0.7-0.7-1.7-0.7-2.8c0-0.9,0.1-1.7,0.3-2.4c0.2-0.7,0.5-1.4,1-1.9c0.4-0.6,1-1,1.6-1.4
		c0.6-0.4,1.4-0.7,2.2-0.8c1.1-0.2,2-0.2,2.8,0c0.8,0.2,1.4,0.7,1.9,1.5C184.3,229.8,184.5,230.7,184.6,231.9z M177.3,233.5
		c0,0.7,0.2,1.2,0.4,1.7s0.8,0.6,1.6,0.4c0.6-0.1,1-0.4,1.3-0.7c0.3-0.3,0.5-0.7,0.5-1c0.1-0.4,0.1-0.8,0.1-1.3
		c0-0.7-0.2-1.2-0.5-1.7c-0.3-0.5-0.8-0.6-1.6-0.4C177.9,230.8,177.3,231.8,177.3,233.5z"/>
	<path class="st2" d="M185.1,237.1l-0.3-10.6l6-1.3c0.7-0.1,1.3,0,1.8,0.3s0.8,0.7,1.1,1.3c0.2,0.7,0.3,1.3,0.3,1.7
		c0,0.4-0.1,0.8-0.2,1.1c-0.1,0.4-0.4,0.8-0.8,1.4c-0.4,0.6-1,1-1.8,1.3l-2.9,0.6l0.1,3.5L185.1,237.1z M188.2,228.4l0,2l2.3-0.5
		c0.1,0,0.3-0.1,0.4-0.2c0.1-0.1,0.2-0.4,0.2-0.8c0-0.4-0.1-0.7-0.3-0.7c-0.2-0.1-0.3-0.1-0.4-0.1L188.2,228.4z"/>
	<path class="st2" d="M194.6,235l-0.3-10.6l7.8-1.7l0.1,3.2l-4.9,1.1l0,1.2l3.1-0.7l0,1.9l-3.1,0.7l0,1.2l5.6-1.2l0.1,3.2L194.6,235
		z"/>
	<path class="st2" d="M203.2,233.1l-0.3-10.6l6-1.3c0.7-0.1,1.3,0,1.8,0.3c0.5,0.3,0.8,0.7,1.1,1.3c0.2,0.9,0.2,1.6,0.1,2.2
		c-0.1,0.5-0.4,1-0.8,1.5s-0.9,0.8-1.6,1.2l0.7,0.9l2.7-0.6l0.1,3.2l-3.6,0.8l-3-2.9l0.1,3.5L203.2,233.1z M206.3,224.4l0,2l2.3-0.5
		c0.1,0,0.3-0.1,0.4-0.2c0.1-0.1,0.2-0.4,0.2-0.8c0-0.4-0.1-0.7-0.3-0.7c-0.2-0.1-0.3-0.1-0.4-0.1L206.3,224.4z"/>
</g>
</svg>
