<svg id="stars" xmlns="http://www.w3.org/2000/svg" viewBox="0 0 1366 768">
	<rect fill="#EAEAEA" x="1180.8" y="76.8" width="3.4" height="3.4" data-height="3.4" rx="3.4" />
	<rect fill="#EAEAEA" x="1108.4" y="62.7" width="1.6" height="1.6" data-height="1.6" rx="1.6" />
	<rect fill="#EAEAEA" x="968.7" y="111.2" width="1.1" height="1.1" data-height="1.1" rx="1.1" />
	<rect fill="#EAEAEA" x="923.1" y="66.7" width="1.1" height="1.1" data-height="1.1" rx="1.1" />
	<rect fill="#EAEAEA" x="819.7" y="120.1" width="0.3" height="0.3" data-height="0.3" rx="0.3" />
	<rect fill="#EAEAEA" x="665.6" y="104.7" width="0.7" height="0.7" data-height="0.7" rx="0.7" />
	<rect fill="#EAEAEA" x="681.4" y="41.9" width="3.9" height="3.9" data-height="3.9" rx="3.9" />
	<rect fill="#EAEAEA" x="470.1" y="66.1" width="4" height="4" data-height="4" rx="4" />
	<rect fill="#EAEAEA" x="551.8" y="101.8" width="4.6" height="4.6" data-height="4.6" rx="4.6" />
	<rect fill="#EAEAEA" x="432.4" y="108.2" width="4.1" height="4.1" data-height="4.1" rx="4.1" />
	<rect fill="#EAEAEA" x="367.6" y="59.3" width="3.7" height="3.7" data-height="3.7" rx="3.7" />
	<rect fill="#EAEAEA" x="194.9" y="186.3" width="4.7" height="4.7" data-height="4.7" rx="4.7" />
	<rect fill="#EAEAEA" x="219.4" y="76.8" width="4.3" height="4.3" data-height="4.3" rx="4.3" />
	<rect fill="#EAEAEA" x="267.3" y="107.9" width="2.1" height="2.1" data-height="2.1" rx="2.1" />
	<rect fill="#EAEAEA" x="207.6" y="123.1" width="2.5" height="2.5" data-height="2.5" rx="2.5" />
	<rect fill="#EAEAEA" x="41.2" y="29" width="2" height="2" data-height="2" rx="2" />
	<rect fill="#EAEAEA" x="1220.3" y="217.7" width="3.6" height="3.6" data-height="3.6" rx="3.6" />
	<rect fill="#EAEAEA" x="1076.4" y="199.1" width="3.5" height="3.5" data-height="3.5" rx="3.5" />
	<rect fill="#EAEAEA" x="1158.3" y="248.1" width="2.6" height="2.6" data-height="2.6" rx="2.6" />
	<rect fill="#EAEAEA" x="1116.2" y="234.3" width="0.3" height="0.3" data-height="0.3" rx="0.3" />
	<rect fill="#EAEAEA" x="1100.4" y="249.9" width="2.7" height="2.7" data-height="2.7" rx="2.7" />
	<rect fill="#EAEAEA" x="863.7" y="197.2" width="1.2" height="1.2" data-height="1.2" rx="1.2" />
	<rect fill="#EAEAEA" x="972.9" y="180.5" width="3.8" height="3.8" data-height="3.8" rx="3.8" />
	<rect fill="#EAEAEA" x="917.2" y="169.2" width="1.1" height="1.1" data-height="1.1" rx="1.1" />
	<rect fill="#EAEAEA" x="751.4" y="193.3" width="1.8" height="1.8" data-height="1.8" rx="1.8" />
	<rect fill="#EAEAEA" x="728" y="170.4" width="4.7" height="4.7" data-height="4.7" rx="4.7" />
	<rect fill="#EAEAEA" x="609.7" y="112.7" width="4" height="4" data-height="4" rx="4" />
	<rect fill="#EAEAEA" x="603.4" y="144.9" width="0.5" height="0.5" data-height="0.5" rx="0.5" />
	<rect fill="#EAEAEA" x="474.1" y="175.9" width="2.7" height="2.7" data-height="2.7" rx="2.7" />
	<rect fill="#EAEAEA" x="418.1" y="154" width="1.1" height="1.1" data-height="1.1" rx="1.1" />
	<rect fill="#EAEAEA" x="192.1" y="179.9" width="4" height="4" data-height="4" rx="4" />
	<rect fill="#EAEAEA" x="283.6" y="222.8" width="2.1" height="2.1" data-height="2.1" rx="2.1" />
	<rect fill="#EAEAEA" x="149.6" y="227.3" width="0.7" height="0.7" data-height="0.7" rx="0.7" />
	<rect fill="#EAEAEA" x="84" y="160.8" width="2" height="2" data-height="2" rx="2" />
	<rect fill="#EAEAEA" x="113.5" y="176.3" width="3.9" height="3.9" data-height="3.9" rx="3.9" />
	<rect fill="#EAEAEA" x="1221.3" y="280.8" width="0.7" height="0.7" data-height="0.7" rx="0.7" />
	<rect fill="#EAEAEA" x="1148.9" y="229.6" width="3.5" height="3.5" data-height="3.5" rx="3.5" />
	<rect fill="#EAEAEA" x="1007.3" y="248.9" width="3.8" height="3.8" data-height="3.8" rx="3.8" />
	<rect fill="#EAEAEA" x="997.7" y="252.7" width="1.2" height="1.2" data-height="1.2" rx="1.2" />
	<rect fill="#EAEAEA" x="829.7" y="202.6" width="4.7" height="4.7" data-height="4.7" rx="4.7" />
	<rect fill="#EAEAEA" x="756.5" y="328.2" width="3.6" height="3.6" data-height="3.6" rx="3.6" />
	<rect fill="#EAEAEA" x="613.4" y="227.9" width="2.9" height="2.9" data-height="2.9" rx="2.9" />
	<rect fill="#EAEAEA" x="653.4" y="208.6" width="2.2" height="2.2" data-height="2.2" rx="2.2" />
	<rect fill="#EAEAEA" x="551.6" y="264.6" width="2.9" height="2.9" data-height="2.9" rx="2.9" />
	<rect fill="#EAEAEA" x="476.5" y="228" width="4.7" height="4.7" data-height="4.7" rx="4.7" />
	<rect fill="#EAEAEA" x="403.3" y="198.4" width="1.2" height="1.2" data-height="1.2" rx="1.2" />
	<rect fill="#EAEAEA" x="234.5" y="245" width="4.4" height="4.4" data-height="4.4" rx="4.4" />
	<rect fill="#EAEAEA" x="128" y="308.6" width="1.4" height="1.4" data-height="1.4" rx="1.4" />
	<rect fill="#EAEAEA" x="1197.4" y="331.5" width="1.5" height="1.5" data-height="1.5" rx="1.5" />
	<rect fill="#EAEAEA" x="1166.4" y="317.9" width="1.5" height="1.5" data-height="1.5" rx="1.5" />
	<rect fill="#EAEAEA" x="1136.4" y="260.3" width="2.3" height="2.3" data-height="2.3" rx="2.3" />
	<rect fill="#EAEAEA" x="928.5" y="381.9" width="0.5" height="0.5" data-height="0.5" rx="0.5" />
	<rect fill="#EAEAEA" x="871.6" y="348.1" width="1.1" height="1.1" data-height="1.1" rx="1.1" />
	<rect fill="#EAEAEA" x="754" y="364.6" width="4.1" height="4.1" data-height="4.1" rx="4.1" />
	<rect fill="#EAEAEA" x="913.9" y="286.3" width="1.9" height="1.9" data-height="1.9" rx="1.9" />
	<rect fill="#EAEAEA" x="718.9" y="387" width="4.1" height="4.1" data-height="4.1" rx="4.1" />
	<rect fill="#EAEAEA" x="773.9" y="270.8" width="4.2" height="4.2" data-height="4.2" rx="4.2" />
	<rect fill="#EAEAEA" x="691.1" y="317" width="3.1" height="3.1" data-height="3.1" rx="3.1" />
	<rect fill="#EAEAEA" x="608.3" y="318.4" width="1.1" height="1.1" data-height="1.1" rx="1.1" />
	<rect fill="#EAEAEA" x="553.7" y="323.8" width="3.1" height="3.1" data-height="3.1" rx="3.1" />
	<rect fill="#EAEAEA" x="305.1" y="338.3" width="4.7" height="4.7" data-height="4.7" rx="4.7" />
	<rect fill="#EAEAEA" x="431.9" y="334.8" width="1.6" height="1.6" data-height="1.6" rx="1.6" />
	<rect fill="#EAEAEA" x="381" y="343.1" width="3.3" height="3.3" data-height="3.3" rx="3.3" />
	<rect fill="#EAEAEA" x="183.3" y="303.6" width="1.6" height="1.6" data-height="1.6" rx="1.6" />
	<rect fill="#EAEAEA" x="268.6" y="311.7" width="3" height="3" data-height="3" rx="3" />
	<rect fill="#EAEAEA" x="25.8" y="333.5" width="3.2" height="3.2" data-height="3.2" rx="3.2" />
	<rect fill="#EAEAEA" x="175.7" y="302.8" width="3.2" height="3.2" data-height="3.2" rx="3.2" />
	<rect fill="#EAEAEA" x="82.1" y="300.8" width="2.6" height="2.6" data-height="2.6" rx="2.6" />
	<rect fill="#EAEAEA" x="1302.8" y="396.8" width="3.4" height="3.4" data-height="3.4" rx="3.4" />
	<rect fill="#EAEAEA" x="1230.4" y="382.7" width="1.6" height="1.6" data-height="1.6" rx="1.6" />
	<rect fill="#EAEAEA" x="1090.7" y="431.2" width="1.1" height="1.1" data-height="1.1" rx="1.1" />
	<rect fill="#EAEAEA" x="1045.1" y="386.7" width="1.1" height="1.1" data-height="1.1" rx="1.1" />
	<rect fill="#EAEAEA" x="941.7" y="440.1" width="0.3" height="0.3" data-height="0.3" rx="0.3" />
	<rect fill="#EAEAEA" x="787.6" y="424.7" width="0.7" height="0.7" data-height="0.7" rx="0.7" />
	<rect fill="#EAEAEA" x="803.4" y="361.9" width="3.9" height="3.9" data-height="3.9" rx="3.9" />
	<rect fill="#EAEAEA" x="592.1" y="386.1" width="4" height="4" data-height="4" rx="4" />
	<rect fill="#EAEAEA" x="673.8" y="421.8" width="4.6" height="4.6" data-height="4.6" rx="4.6" />
	<rect fill="#EAEAEA" x="554.4" y="428.2" width="4.1" height="4.1" data-height="4.1" rx="4.1" />
	<rect fill="#EAEAEA" x="489.6" y="379.3" width="3.7" height="3.7" data-height="3.7" rx="3.7" />
	<rect fill="#EAEAEA" x="316.9" y="506.3" width="4.7" height="4.7" data-height="4.7" rx="4.7" />
	<rect fill="#EAEAEA" x="341.4" y="396.8" width="4.3" height="4.3" data-height="4.3" rx="4.3" />
	<rect fill="#EAEAEA" x="389.3" y="427.9" width="2.1" height="2.1" data-height="2.1" rx="2.1" />
	<rect fill="#EAEAEA" x="329.6" y="443.1" width="2.5" height="2.5" data-height="2.5" rx="2.5" />
	<rect fill="#EAEAEA" x="163.2" y="349" width="2" height="2" data-height="2" rx="2" />
	<rect fill="#EAEAEA" x="1342.3" y="537.7" width="3.6" height="3.6" data-height="3.6" rx="3.6" />
	<rect fill="#EAEAEA" x="1198.4" y="519.1" width="3.5" height="3.5" data-height="3.5" rx="3.5" />
	<rect fill="#EAEAEA" x="1280.3" y="568.1" width="2.6" height="2.6" data-height="2.6" rx="2.6" />
	<rect fill="#EAEAEA" x="1238.2" y="554.3" width="0.3" height="0.3" data-height="0.3" rx="0.3" />
	<rect fill="#EAEAEA" x="1222.4" y="569.9" width="2.7" height="2.7" data-height="2.7" rx="2.7" />
	<rect fill="#EAEAEA" x="985.7" y="517.2" width="1.2" height="1.2" data-height="1.2" rx="1.2" />
	<rect fill="#EAEAEA" x="1094.9" y="500.5" width="3.8" height="3.8" data-height="3.8" rx="3.8" />
	<rect fill="#EAEAEA" x="1039.2" y="489.2" width="1.1" height="1.1" data-height="1.1" rx="1.1" />
	<rect fill="#EAEAEA" x="873.4" y="513.3" width="1.8" height="1.8" data-height="1.8" rx="1.8" />
	<rect fill="#EAEAEA" x="850" y="490.4" width="4.7" height="4.7" data-height="4.7" rx="4.7" />
	<rect fill="#EAEAEA" x="731.7" y="432.7" width="4" height="4" data-height="4" rx="4" />
	<rect fill="#EAEAEA" x="725.4" y="464.9" width="0.5" height="0.5" data-height="0.5" rx="0.5" />
	<rect fill="#EAEAEA" x="596.1" y="495.9" width="2.7" height="2.7" data-height="2.7" rx="2.7" />
	<rect fill="#EAEAEA" x="540.1" y="474" width="1.1" height="1.1" data-height="1.1" rx="1.1" />
	<rect fill="#EAEAEA" x="314.1" y="499.9" width="4" height="4" data-height="4" rx="4" />
	<rect fill="#EAEAEA" x="405.6" y="542.8" width="2.1" height="2.1" data-height="2.1" rx="2.1" />
	<rect fill="#EAEAEA" x="271.6" y="547.3" width="0.7" height="0.7" data-height="0.7" rx="0.7" />
	<rect fill="#EAEAEA" x="206" y="480.8" width="2" height="2" data-height="2" rx="2" />
	<rect fill="#EAEAEA" x="235.5" y="496.3" width="3.9" height="3.9" data-height="3.9" rx="3.9" />
	<rect fill="#EAEAEA" x="30.5" y="549" width="2.9" height="2.9" data-height="2.9" rx="2.9" />
	<rect fill="#EAEAEA" x="1343.3" y="600.8" width="0.7" height="0.7" data-height="0.7" rx="0.7" />
	<rect fill="#EAEAEA" x="1270.9" y="549.6" width="3.5" height="3.5" data-height="3.5" rx="3.5" />
	<rect fill="#EAEAEA" x="1129.3" y="568.9" width="3.8" height="3.8" data-height="3.8" rx="3.8" />
	<rect fill="#EAEAEA" x="1119.7" y="572.7" width="1.2" height="1.2" data-height="1.2" rx="1.2" />
	<rect fill="#EAEAEA" x="951.7" y="522.6" width="4.7" height="4.7" data-height="4.7" rx="4.7" />
	<rect fill="#EAEAEA" x="878.5" y="648.2" width="3.6" height="3.6" data-height="3.6" rx="3.6" />
	<rect fill="#EAEAEA" x="735.4" y="547.9" width="2.9" height="2.9" data-height="2.9" rx="2.9" />
	<rect fill="#EAEAEA" x="775.4" y="528.6" width="2.2" height="2.2" data-height="2.2" rx="2.2" />
	<rect fill="#EAEAEA" x="673.6" y="584.6" width="2.9" height="2.9" data-height="2.9" rx="2.9" />
	<rect fill="#EAEAEA" x="598.5" y="548" width="4.7" height="4.7" data-height="4.7" rx="4.7" />
	<rect fill="#EAEAEA" x="525.3" y="518.4" width="1.2" height="1.2" data-height="1.2" rx="1.2" />
	<rect fill="#EAEAEA" x="356.5" y="565" width="4.4" height="4.4" data-height="4.4" rx="4.4" />
	<rect fill="#EAEAEA" x="250" y="628.6" width="1.4" height="1.4" data-height="1.4" rx="1.4" />
	<rect fill="#EAEAEA" x="98.6" y="625.6" width="2" height="2" data-height="2" rx="2" /> data- rx="2" />
	<rect fill="#EAEAEA" x="1319.4" y="651.5" width="1.5" height="1.5" data-height="1.5" rx="1.5" />
	<rect fill="#EAEAEA" x="1288.4" y="637.9" width="1.5" height="1.5" data-height="1.5" rx="1.5" />
	<rect fill="#EAEAEA" x="1258.4" y="580.3" width="2.3" height="2.3" data-height="2.3" rx="2.3" />
	<rect fill="#EAEAEA" x="1050.5" y="701.9" width="0.5" height="0.5" data-height="0.5" rx="0.5" />
	<rect fill="#EAEAEA" x="993.6" y="668.1" width="1.1" height="1.1" data-height="1.1" rx="1.1" />
	<rect fill="#EAEAEA" x="876" y="684.6" width="4.1" height="4.1" data-height="4.1" rx="4.1" />
	<rect fill="#EAEAEA" x="1035.9" y="606.3" width="1.9" height="1.9" data-height="1.9" rx="1.9" />
	<rect fill="#EAEAEA" x="840.9" y="707" width="4.1" height="4.1" data-height="4.1" rx="4.1" />
	<rect fill="#EAEAEA" x="895.9" y="590.8" width="4.2" height="4.2" data-height="4.2" rx="4.2" />
	<rect fill="#EAEAEA" x="813.1" y="637" width="3.1" height="3.1" data-height="3.1" rx="3.1" />
	<rect fill="#EAEAEA" x="730.3" y="638.4" width="1.1" height="1.1" data-height="1.1" rx="1.1" />
	<rect fill="#EAEAEA" x="675.7" y="643.8" width="3.1" height="3.1" data-height="3.1" rx="3.1" />
	<rect fill="#EAEAEA" x="427.1" y="658.3" width="4.7" height="4.7" data-height="4.7" rx="4.7" />
	<rect fill="#EAEAEA" x="553.9" y="654.8" width="1.6" height="1.6" data-height="1.6" rx="1.6" />
	<rect fill="#EAEAEA" x="503" y="663.1" width="3.3" height="3.3" data-height="3.3" rx="3.3" />
	<rect fill="#EAEAEA" x="305.3" y="623.6" width="1.6" height="1.6" data-height="1.6" rx="1.6" />
	<rect fill="#EAEAEA" x="390.6" y="631.7" width="3" height="3" data-height="3" rx="3" />
	<rect fill="#EAEAEA" x="147.8" y="653.5" width="3.2" height="3.2" data-height="3.2" rx="3.2" />
	<rect fill="#EAEAEA" x="297.7" y="622.8" width="3.2" height="3.2" data-height="3.2" rx="3.2" />
	<rect fill="#EAEAEA" x="90.1" y="682.7" width="1.1" height="1.1" data-height="1.1" rx="1.1" />
	<rect fill="#EAEAEA" x="204.1" y="620.8" width="2.6" height="2.6" data-height="2.6" rx="2.6" />
	<rect fill="#EAEAEA" x="10" y="692" width="1.2" height="1.2" data-height="1.2" rx="1.2" />
	<rect fill="#EAEAEA" x="1242.8" y="682.3" width="4.3" height="4.3" data-height="4.3" rx="4.3" />
	<rect fill="#EAEAEA" x="1185.5" y="698.8" width="2.5" height="2.5" data-height="2.5" rx="2.5" />
	<rect fill="#EAEAEA" x="1187.2" y="627.2" width="4.5" height="4.5" data-height="4.5" rx="4.5" />
	<rect fill="#EAEAEA" x="973.4" y="719" width="4.7" height="4.7" data-height="4.7" rx="4.7" />
	<rect fill="#EAEAEA" x="945.3" y="697.3" width="4.6" height="4.6" data-height="4.6" rx="4.6" />
	<rect fill="#EAEAEA" x="826.4" y="662.8" width="4" height="4" data-height="4" rx="4" />
	<rect fill="#EAEAEA" x="747.4" y="668.3" width="1.1" height="1.1" data-height="1.1" rx="1.1" />
	<rect fill="#EAEAEA" x="652.7" y="711.9" width="4.7" height="4.7" data-height="4.7" rx="4.7" />
	<rect fill="#EAEAEA" x="598.4" y="719.4" width="0.3" height="0.3" data-height="0.3" rx="0.3" />
	<rect fill="#EAEAEA" x="520.2" y="664.8" width="4.4" height="4.4" data-height="4.4" rx="4.4" />
	<rect fill="#EAEAEA" x="448.1" y="705.2" width="4.3" height="4.3" data-height="4.3" rx="4.3" />
	<rect fill="#EAEAEA" x="337.8" y="719.4" width="3.3" height="3.3" data-height="3.3" rx="3.3" />
	<rect fill="#EAEAEA" x="282.4" y="715.1" width="2.7" height="2.7" data-height="2.7" rx="2.7" />
	<rect fill="#EAEAEA" x="190.8" y="701.8" width="0.7" height="0.7" data-height="0.7" rx="0.7" />
	<rect fill="#EAEAEA" x="139.6" y="651.7" width="4.6" height="4.6" data-height="4.6" rx="4.6" />
</svg>